<?xml version="1.0" encoding="utf-8" ?><svg xmlns="http://www.w3.org/2000/svg" xmlns:xlink="http://www.w3.org/1999/xlink" width="1024" height="1024" viewBox="0 0 1024 1024"><path fill="#E1F5EE" fill-opacity="0.0078431377" d="M0 0L1024 0L1024 1024L0 1024L0 0ZM593.942 441.192C586.972 440.046 564.661 451.69 556.715 452.299C549.46 452.855 551.687 453.583 546.001 456C544.471 456.65 538.911 454.211 536.603 454.746L536.439 455.213C539.845 457.355 543.499 459.754 546.96 461.752C548.595 461.46 550.446 460.988 552.082 460.613C555.605 459.962 559.18 458.609 562.593 457.802C566.418 456.34 569.707 455.409 573.607 453.727C573.973 453.633 575.543 452.956 575.991 452.774C578.639 451.845 581.762 450.778 584.412 449.936C589.733 448.339 594.538 446.94 600.029 446.024C610.441 444.537 614.936 444.349 625.317 445.509C626.271 445.64 627.226 445.76 628.182 445.868C628.285 444.781 631.31 443.738 632.254 443.794C633.033 443.84 636.997 442.499 636.848 442.122C635.589 441.467 631.913 443.087 629.85 442.404C630.815 442.723 627.393 440.5 628.194 441.283C628.015 439.809 629.73 440.617 630.109 439.79L630.017 439.586C628.034 439.17 629.157 439.922 628.665 438.3C628.231 437.873 627.003 437.913 626.422 437.865C625.399 438.853 624.861 440.747 623.5 440.571C623.745 432.776 615.276 433.214 613.873 430.358C615.137 428.401 616.872 428.996 618.547 427.928C623.393 424.837 615.004 418.103 613.425 415.677C610.545 411.251 601.491 408.806 600.65 403.362C601.21 401.848 601.195 401.838 601.351 400.222C600.307 398.659 601.012 399.298 598.85 398.633L599.768 397.933C606.114 397.587 605.093 400.951 606.528 401.893L607.285 400.936L607.78 401.938C612.927 403.435 621.078 406.896 625.22 407.668L627.701 409.981L628.541 409.654C623.683 401.515 610.748 405.142 608.962 398.179C608.517 396.669 608.18 395.979 606.666 395.359C595.659 390.854 582.323 396.571 571.849 400.502C569.351 401.439 563.72 402.247 563.188 402.575L562.666 401.791C557.44 404.077 546.499 408.448 541.951 410.806C542.147 411.225 542.053 410.926 541.877 411.743C540.811 412.161 540.934 412.04 540.012 412.677L539.754 414.795C534.756 416.674 533.567 416.636 528.21 416.261C527.552 416.215 523.259 419.703 521.845 420.179C518.011 421.471 509.768 420.4 507.013 423.245C509.332 424.115 523.792 422.874 525.906 420.98C531.297 416.148 539.165 422.899 545.088 418.333C546.154 417.511 548.596 415.729 548.872 414.5C547.414 414.619 544.272 415.932 542.73 416.498C542.693 415.797 542.648 415.226 542.585 414.533C544.636 411.263 553.097 409.431 556.64 407.911C559.25 406.792 561.499 404.548 564.143 405.284L564.146 406.637C572.201 408.084 573.253 406.122 580.983 403.775C582.463 403.325 584.1 403.427 585.491 402.827C587.359 401.83 588.541 399.773 590.812 399.457L591.108 399.808C587.555 402.614 586.387 403.735 581.733 404.619C577.19 405.483 571.006 409.139 569.976 413.998C570.679 415.446 572.681 418.006 573.712 419.423C576.805 423.673 579.514 430.629 583.878 433.545C585.666 433.797 588.042 433.69 589.25 434.522C589.552 435.541 590.139 437.521 590.455 438.512C590.554 438.823 593.779 440.803 593.942 441.192ZM550.302 419.809C550.191 420.207 550.143 420.231 550.176 420.584C550.377 420.572 550.244 420.599 550.606 420.444C550.732 420.167 550.832 419.963 550.88 419.684C550.687 419.726 550.494 419.767 550.302 419.809ZM447.384 452.689C448.876 453.337 450.395 453.848 451.924 454.396C453.655 454.131 453.633 453.846 456.001 453.805C458.679 453.375 459.334 455.209 461.245 455.613C463.546 455.864 465.136 454.592 467.246 454.503C469.824 454.395 473.462 455.235 475.902 454.756L475.855 454.648C475.121 454.293 471.88 453.836 470.007 452.49C466.769 450.164 460.821 452.758 456.803 450.824C455.635 450.262 452.699 451.017 451.617 451.297C451.94 451.214 449.937 454.308 448.313 452.138L448.346 452.146C448.36 450.764 447.424 448.462 445.911 450.276C446.798 451.375 447.112 450.68 447.384 452.689Z"/><path fill="#0F6E56" d="M512.479 294.762C515.203 292.016 518.05 289.394 521.01 286.904C557.642 256.69 608.573 259.058 646.597 284.987C662.768 296.015 675.731 309.494 689.859 322.889L754.377 384.619L801.199 429.468C806.354 434.384 819.677 446.117 823.6 450.921C802.305 476.901 780.768 502.682 758.991 528.261C731.84 560.277 709.185 593.291 672.584 615.937C667.175 619.284 661.133 623.218 655.344 625.773C655.063 620.457 655.45 612.865 655.406 607.191L655.055 560.808L654.971 532.887C654.95 522.953 653.465 517.991 659.258 509.34C676.872 483.039 698.813 464.008 730.476 457.58C707.948 445.958 685.569 434.05 663.344 421.86C650.811 414.863 638.214 407.961 625.608 401.156C602.914 388.906 585.284 390.252 562.666 401.791C557.44 404.077 546.499 408.448 541.951 410.806C511.412 420.05 494.656 415.857 465.387 403.587C458.032 400.394 451.011 396.268 443.234 394.136C415.256 386.464 390.604 405.486 367.295 418.1L323.536 441.804C313.564 447.134 303.703 452.111 293.89 457.758C298.697 459.262 303.839 460.219 308.947 461.859C325.159 467.064 337.444 476.821 349.013 488.795C354.129 494.091 368.337 511.055 369.372 517.719C370.423 524.487 370.06 545.165 369.945 552.532C369.568 576.575 369.953 600.968 369.482 624.916C364.59 623.107 359.795 619.915 355.316 617.21C320.921 596.44 296.409 566.176 271.328 535.449C248.204 507.121 223.923 479.386 200.936 450.872C206.468 445.026 215.853 436.588 221.966 430.69L279.246 376.197C296.895 359.087 314.682 342.121 332.608 325.301C350.948 307.883 362.665 294.429 384.65 281.172C401.064 271.139 419.833 265.611 439.064 265.144C469.186 264.138 491.059 274.78 512.479 294.762Z"/><path fill="#0F6E56" d="M359.587 460.583C386.173 444.337 410.262 439.914 439.785 450.367C441.985 451.146 445.101 452.118 447.384 452.689C448.876 453.337 450.395 453.848 451.924 454.396C466.871 459.875 482.566 463.042 498.468 463.785L498.276 587.733L498.287 623.08C498.284 630.808 496.655 644.462 502.045 650.172C504.499 652.799 507.908 654.326 511.502 654.407C515.416 654.488 519.2 653.001 522.011 650.277C523.854 648.488 525.554 645.777 525.772 643.201C526.367 636.174 526.149 628.653 526.141 621.585L526.075 582.91C526.008 543.87 526.412 504.155 525.897 465.179L525.889 464.601C533.432 463.541 539.35 463.307 546.96 461.752C548.595 461.46 550.446 460.988 552.082 460.613C555.605 459.962 559.18 458.609 562.593 457.802C566.418 456.34 569.707 455.409 573.607 453.727C573.973 453.633 575.543 452.956 575.991 452.774C578.639 451.845 581.762 450.778 584.412 449.936C589.733 448.339 594.538 446.94 600.029 446.024C610.441 444.537 614.936 444.349 625.317 445.509C626.271 445.64 627.226 445.76 628.182 445.868C641.159 449.145 652.827 453.551 664.446 460.275C652.241 463.88 642.034 474.45 636.227 485.537C627.407 502.375 629.384 521.067 629.415 539.603L629.54 606.739C629.574 627.631 631.026 649.178 626.188 669.573C599.116 783.684 439.485 790.758 401.911 679.949C393.458 655.024 396.062 625.626 396.254 599.496L396.445 540.347C396.468 528.312 397.415 512.265 394.706 500.814C390.346 482.38 378.35 465.712 359.587 460.583Z"/><path fill="#E6E8E1" fill-opacity="0.33725491" d="M564.146 406.637C564.555 406.371 572.935 403.707 574.049 403.411C584.166 400.729 593.936 392.872 604.842 397.172C606.536 397.84 606.691 399.348 607.285 400.936L606.528 401.893C605.093 400.951 606.114 397.587 599.768 397.933L598.85 398.633C601.012 399.298 600.307 398.659 601.351 400.222C601.195 401.838 601.21 401.848 600.65 403.362C601.491 408.806 610.545 411.251 613.425 415.677C615.004 418.103 623.393 424.837 618.547 427.928C616.872 428.996 615.137 428.401 613.873 430.358C615.276 433.214 623.745 432.776 623.5 440.571C624.861 440.747 625.399 438.853 626.422 437.865L626.266 438.692C626.034 439.885 626.458 443.711 625.065 444.957C625.033 444.985 625.317 445.509 625.317 445.509C614.936 444.349 610.441 444.537 600.029 446.024C598.324 443.908 596.197 444.158 593.942 441.192C593.779 440.803 590.554 438.823 590.455 438.512C590.139 437.521 589.552 435.541 589.25 434.522C588.042 433.69 585.666 433.797 583.878 433.545C579.514 430.629 576.805 423.673 573.712 419.423C572.681 418.006 570.679 415.446 569.976 413.998C571.006 409.139 577.19 405.483 581.733 404.619C586.387 403.735 587.555 402.614 591.108 399.808L590.812 399.457C588.541 399.773 587.359 401.83 585.491 402.827C584.1 403.427 582.463 403.325 580.983 403.775C573.253 406.122 572.201 408.084 564.146 406.637Z"/><path fill="#E6E8E1" fill-opacity="0.090196081" d="M562.666 401.791L563.188 402.575C563.72 402.247 569.351 401.439 571.849 400.502C582.323 396.571 595.659 390.854 606.666 395.359C608.18 395.979 608.517 396.669 608.962 398.179C610.748 405.142 623.683 401.515 628.541 409.654L627.701 409.981L625.22 407.668C621.078 406.896 612.927 403.435 607.78 401.938L607.285 400.936C606.691 399.348 606.536 397.84 604.842 397.172C593.936 392.872 584.166 400.729 574.049 403.411C572.935 403.707 564.555 406.371 564.146 406.637L564.143 405.284C561.499 404.548 559.25 406.792 556.64 407.911C553.097 409.431 544.636 411.263 542.585 414.533C542.648 415.226 542.693 415.797 542.73 416.498C544.272 415.932 547.414 414.619 548.872 414.5C548.596 415.729 546.154 417.511 545.088 418.333C539.165 422.899 531.297 416.148 525.906 420.98C523.792 422.874 509.332 424.115 507.013 423.245C509.768 420.4 518.011 421.471 521.845 420.179C523.259 419.703 527.552 416.215 528.21 416.261C533.567 416.636 534.756 416.674 539.754 414.795L540.012 412.677C540.934 412.04 540.811 412.161 541.877 411.743C542.053 410.926 542.147 411.225 541.951 410.806C546.499 408.448 557.44 404.077 562.666 401.791Z"/><path fill="#E6E8E1" fill-opacity="0.10980392" d="M546.96 461.752C543.499 459.754 539.845 457.355 536.439 455.213L536.603 454.746C538.911 454.211 544.471 456.65 546.001 456C551.687 453.583 549.46 452.855 556.715 452.299C564.661 451.69 586.972 440.046 593.942 441.192C596.197 444.158 598.324 443.908 600.029 446.024C594.538 446.94 589.733 448.339 584.412 449.936L583.486 449.642C580.44 448.649 574.817 447.819 575.991 452.774C575.543 452.956 573.973 453.633 573.607 453.727C571.245 453.094 571.425 454.386 569.656 453.249C567.381 451.787 563.041 455.468 560.15 456.613C556.758 455.56 552.673 454.854 550.943 458.728C551.597 459.879 551.659 459.162 552.082 460.613C550.446 460.988 548.595 461.46 546.96 461.752Z"/><path fill="#E6E8E1" fill-opacity="0.082352944" d="M447.384 452.689C447.112 450.68 446.798 451.375 445.911 450.276C447.424 448.462 448.36 450.764 448.346 452.146L448.313 452.138C449.937 454.308 451.94 451.214 451.617 451.297C452.699 451.017 455.635 450.262 456.803 450.824C460.821 452.758 466.769 450.164 470.007 452.49C471.88 453.836 475.121 454.293 475.855 454.648L475.902 454.756C473.462 455.235 469.824 454.395 467.246 454.503C465.136 454.592 463.546 455.864 461.245 455.613C459.334 455.209 458.679 453.375 456.001 453.805C453.633 453.846 453.655 454.131 451.924 454.396C450.395 453.848 448.876 453.337 447.384 452.689Z"/><path fill="#E6E8E1" fill-opacity="0.1254902" d="M626.422 437.865C627.003 437.913 628.231 437.873 628.665 438.3C629.157 439.922 628.034 439.17 630.017 439.586L630.109 439.79C629.73 440.617 628.015 439.809 628.194 441.283C627.393 440.5 630.815 442.723 629.85 442.404C631.913 443.087 635.589 441.467 636.848 442.122C636.997 442.499 633.033 443.84 632.254 443.794C631.31 443.738 628.285 444.781 628.182 445.868C627.226 445.76 626.271 445.64 625.317 445.509C625.317 445.509 625.033 444.985 625.065 444.957C626.458 443.711 626.034 439.885 626.266 438.692L626.422 437.865Z"/><path fill="#E6E8E1" fill-opacity="0.023529412" d="M560.15 456.613C563.041 455.468 567.381 451.787 569.656 453.249C571.425 454.386 571.245 453.094 573.607 453.727C569.707 455.409 566.418 456.34 562.593 457.802C561.712 457.423 561.003 457.05 560.15 456.613Z"/><path fill="#E6E8E1" fill-opacity="0.0078431377" d="M575.991 452.774C574.817 447.819 580.44 448.649 583.486 449.642L584.412 449.936C581.762 450.778 578.639 451.845 575.991 452.774Z"/><path fill="#E6E8E1" fill-opacity="0.3019608" d="M550.302 419.809C550.494 419.767 550.687 419.726 550.88 419.684C550.832 419.963 550.732 420.167 550.606 420.444C550.244 420.599 550.377 420.572 550.176 420.584C550.143 420.231 550.191 420.207 550.302 419.809Z"/></svg>